{
  "accessors": [
    {
      "bufferView": 0,
      "componentType": 5125,
      "count": 75978,
      "type": "SCALAR"
    },
    {
      "bufferView": 1,
      "componentType": 5126,
      "count": 14289,
      "max": [
        0.64107483625412,
        1.15271973609924,
        0.295144468545914
      ],
      "min": [
        -1.6525764465332,
        -0.130110919475555,
        -0.916314244270325
      ],
      "type": "VEC3"
    },
    {
      "bufferView": 2,
      "componentType": 5126,
      "count": 14289,
      "type": "VEC3"
    },
    {
      "bufferView": 3,
      "componentType": 5126,
      "count": 14289,
      "type": "VEC4"
    },
    {
      "bufferView": 4,
      "componentType": 5126,
      "count": 14289,
      "type": "VEC2"
    }
  ],
  "asset": {
    "generator": "Adobe Substance 3D Painter 11.0.0",
    "version": "2.0"
  },
  "bufferViews": [
    {
      "buffer": 0,
      "byteLength": 303912,
      "target": 34963
    },
    {
      "buffer": 0,
      "byteLength": 171468,
      "byteOffset": 303912,
      "target": 34962
    },
    {
      "buffer": 0,
      "byteLength": 171468,
      "byteOffset": 475380,
      "target": 34962
    },
    {
      "buffer": 0,
      "byteLength": 228624,
      "byteOffset": 646848,
      "target": 34962
    },
    {
      "buffer": 0,
      "byteLength": 114312,
      "byteOffset": 875472,
      "target": 34962
    }
  ],
  "buffers": [
    {
      "byteLength": 989784,
      "uri": "XOBC_013.bin"
    }
  ],
  "images": [
    {
      "uri": "DefaultMaterial_baseColor_1001.png"
    },
    {
      "uri": "DefaultMaterial_occlusionRoughnessMetallic_1001.png"
    },
    {
      "uri": "DefaultMaterial_normal_1001.png"
    }
  ],
  "materials": [
    {
      "alphaMode": "OPAQUE",
      "name": "DefaultMaterial_1001",
      "normalTexture": {
        "index": 2
      },
      "occlusionTexture": {
        "index": 1
      },
      "pbrMetallicRoughness": {
        "baseColorTexture": {
          "index": 0
        },
        "metallicRoughnessTexture": {
          "index": 1
        }
      }
    }
  ],
  "meshes": [
    {
      "name": "brown_sofa_low_poly",
      "primitives": [
        {
          "attributes": {
            "NORMAL": 2,
            "POSITION": 1,
            "TANGENT": 3,
            "TEXCOORD_0": 4
          },
          "indices": 0,
          "material": 0,
          "mode": 4
        }
      ]
    }
  ],
  "nodes": [
    {
      "children": [
        1
      ],
      "name": "RootNode",
      "scale": [
        0.00999999977648258,
        0.00999999977648258,
        0.00999999977648258
      ]
    },
    {
      "children": [
        2
      ],
      "name": "brown_sofa_low_poly",
      "rotation": [
        0.500000059604645,
        -0.5,
        0.499999940395355,
        -0.5
      ],
      "scale": [
        59.3817520141602,
        100.0,
        100.0
      ],
      "translation": [
        46.5821571350098,
        37.2854690551758,
        51.0520706176758
      ]
    },
    {
      "mesh": 0,
      "name": "brown_sofa_low_poly"
    }
  ],
  "samplers": [
    {
      "magFilter": 9729,
      "minFilter": 9985,
      "wrapS": 10497,
      "wrapT": 10497
    }
  ],
  "scene": 0,
  "scenes": [
    {
      "name": "Scene",
      "nodes": [
        0
      ]
    }
  ],
  "textures": [
    {
      "sampler": 0,
      "source": 0
    },
    {
      "sampler": 0,
      "source": 1
    },
    {
      "sampler": 0,
      "source": 2
    }
  ]
}