{
  "accessors": [
    {
      "bufferView": 0,
      "componentType": 5125,
      "count": 40872,
      "type": "SCALAR"
    },
    {
      "bufferView": 1,
      "componentType": 5126,
      "count": 7933,
      "max": [
        0.365518569946289,
        0.338706314563751,
        0.638489067554474
      ],
      "min": [
        -0.369077861309052,
        -0.611172795295715,
        -0.59419196844101
      ],
      "type": "VEC3"
    },
    {
      "bufferView": 2,
      "componentType": 5126,
      "count": 7933,
      "type": "VEC3"
    },
    {
      "bufferView": 3,
      "componentType": 5126,
      "count": 7933,
      "type": "VEC4"
    },
    {
      "bufferView": 4,
      "componentType": 5126,
      "count": 7933,
      "type": "VEC2"
    }
  ],
  "asset": {
    "generator": "Adobe Substance 3D Painter 11.0.0",
    "version": "2.0"
  },
  "bufferViews": [
    {
      "buffer": 0,
      "byteLength": 163488,
      "target": 34963
    },
    {
      "buffer": 0,
      "byteLength": 95196,
      "byteOffset": 163488,
      "target": 34962
    },
    {
      "buffer": 0,
      "byteLength": 95196,
      "byteOffset": 258684,
      "target": 34962
    },
    {
      "buffer": 0,
      "byteLength": 126928,
      "byteOffset": 353880,
      "target": 34962
    },
    {
      "buffer": 0,
      "byteLength": 63464,
      "byteOffset": 480808,
      "target": 34962
    }
  ],
  "buffers": [
    {
      "byteLength": 544272,
      "uri": "XOBC_010.bin"
    }
  ],
  "images": [
    {
      "uri": "DefaultMaterial_baseColor.png"
    },
    {
      "uri": "DefaultMaterial_occlusionRoughnessMetallic.png"
    },
    {
      "uri": "DefaultMaterial_normal.png"
    }
  ],
  "materials": [
    {
      "alphaMode": "OPAQUE",
      "name": "DefaultMaterial",
      "normalTexture": {
        "index": 2
      },
      "occlusionTexture": {
        "index": 1
      },
      "pbrMetallicRoughness": {
        "baseColorTexture": {
          "index": 0
        },
        "metallicRoughnessTexture": {
          "index": 1
        }
      }
    }
  ],
  "meshes": [
    {
      "name": "Cube",
      "primitives": [
        {
          "attributes": {
            "NORMAL": 2,
            "POSITION": 1,
            "TANGENT": 3,
            "TEXCOORD_0": 4
          },
          "indices": 0,
          "material": 0,
          "mode": 4
        }
      ]
    }
  ],
  "nodes": [
    {
      "children": [
        1
      ],
      "name": "RootNode",
      "scale": [
        0.00999999977648258,
        0.00999999977648258,
        0.00999999977648258
      ]
    },
    {
      "children": [
        2
      ],
      "name": "Cube",
      "rotation": [
        -0.707106828689575,
        0.0,
        0.0,
        0.707106709480286
      ],
      "scale": [
        93.7289810180664,
        100.0,
        100.0
      ],
      "translation": [
        -1.84626388549805,
        61.3222312927246,
        0.0
      ]
    },
    {
      "mesh": 0,
      "name": "Cube"
    }
  ],
  "samplers": [
    {
      "magFilter": 9729,
      "minFilter": 9985,
      "wrapS": 10497,
      "wrapT": 10497
    }
  ],
  "scene": 0,
  "scenes": [
    {
      "name": "Scene",
      "nodes": [
        0
      ]
    }
  ],
  "textures": [
    {
      "sampler": 0,
      "source": 0
    },
    {
      "sampler": 0,
      "source": 1
    },
    {
      "sampler": 0,
      "source": 2
    }
  ]
}