{
  "accessors": [
    {
      "bufferView": 0,
      "componentType": 5125,
      "count": 196332,
      "type": "SCALAR"
    },
    {
      "bufferView": 1,
      "componentType": 5126,
      "count": 36239,
      "max": [
        0.2975113093853,
        1.31452083587646,
        1.07929265499115
      ],
      "min": [
        -0.32455238699913,
        -0.300575256347656,
        -0.640213251113892
      ],
      "type": "VEC3"
    },
    {
      "bufferView": 2,
      "componentType": 5126,
      "count": 36239,
      "type": "VEC3"
    },
    {
      "bufferView": 3,
      "componentType": 5126,
      "count": 36239,
      "type": "VEC4"
    },
    {
      "bufferView": 4,
      "componentType": 5126,
      "count": 36239,
      "type": "VEC2"
    }
  ],
  "asset": {
    "generator": "Adobe Substance 3D Painter 11.0.0",
    "version": "2.0"
  },
  "bufferViews": [
    {
      "buffer": 0,
      "byteLength": 785328,
      "target": 34963
    },
    {
      "buffer": 0,
      "byteLength": 434868,
      "byteOffset": 785328,
      "target": 34962
    },
    {
      "buffer": 0,
      "byteLength": 434868,
      "byteOffset": 1220196,
      "target": 34962
    },
    {
      "buffer": 0,
      "byteLength": 579824,
      "byteOffset": 1655064,
      "target": 34962
    },
    {
      "buffer": 0,
      "byteLength": 289912,
      "byteOffset": 2234888,
      "target": 34962
    }
  ],
  "buffers": [
    {
      "byteLength": 2524800,
      "uri": "XOBC_016.bin"
    }
  ],
  "images": [
    {
      "uri": "DefaultMaterial_baseColor_1001.png"
    },
    {
      "uri": "DefaultMaterial_occlusionRoughnessMetallic_1001.png"
    },
    {
      "uri": "DefaultMaterial_normal_1001.png"
    }
  ],
  "materials": [
    {
      "alphaMode": "OPAQUE",
      "name": "DefaultMaterial_1001",
      "normalTexture": {
        "index": 2
      },
      "occlusionTexture": {
        "index": 1
      },
      "pbrMetallicRoughness": {
        "baseColorTexture": {
          "index": 0
        },
        "metallicRoughnessTexture": {
          "index": 1
        }
      }
    }
  ],
  "meshes": [
    {
      "name": "XOBC_016",
      "primitives": [
        {
          "attributes": {
            "NORMAL": 2,
            "POSITION": 1,
            "TANGENT": 3,
            "TEXCOORD_0": 4
          },
          "indices": 0,
          "material": 0,
          "mode": 4
        }
      ]
    }
  ],
  "nodes": [
    {
      "children": [
        1
      ],
      "name": "RootNode",
      "scale": [
        0.00999999977648258,
        0.00999999977648258,
        0.00999999977648258
      ]
    },
    {
      "children": [
        2
      ],
      "name": "XOBC_016",
      "rotation": [
        -0.707106828689575,
        0.0,
        0.0,
        0.707106709480286
      ],
      "scale": [
        106.880096435547,
        84.4050140380859,
        67.1966934204102
      ],
      "translation": [
        2.29547691345215,
        39.5821762084961,
        5.24787616729736
      ]
    },
    {
      "mesh": 0,
      "name": "XOBC_016"
    }
  ],
  "samplers": [
    {
      "magFilter": 9729,
      "minFilter": 9985,
      "wrapS": 10497,
      "wrapT": 10497
    }
  ],
  "scene": 0,
  "scenes": [
    {
      "name": "Scene",
      "nodes": [
        0
      ]
    }
  ],
  "textures": [
    {
      "sampler": 0,
      "source": 0
    },
    {
      "sampler": 0,
      "source": 1
    },
    {
      "sampler": 0,
      "source": 2
    }
  ]
}